<svg xmlns="http://www.w3.org/2000/svg" width="13" height="13" viewBox="0 0 13 13">
  <!-- 戏剧面具图标 - 13x13 尺寸 -->
  <defs>
    <linearGradient id="maskGradient13" x1="0%" y1="0%" x2="100%" y2="100%">
      <stop offset="0%" style="stop-color:#4CAF50;stop-opacity:1" />
      <stop offset="100%" style="stop-color:#2E7D32;stop-opacity:1" />
    </linearGradient>
  </defs>
  
  <!-- 面具外轮廓 -->
  <path d="M 6.5 1.5 C 3.5 1.5 1.5 3.5 1.5 5.8 C 1.5 7 2 8 2.8 8.8 L 3.2 9.2 L 3.6 8.8 C 4 8.4 4.4 8.2 4.8 8.2 C 5.2 8.2 5.6 8.4 6 8.8 L 6.5 9.2 L 7 8.8 C 7.4 8.4 7.8 8.2 8.2 8.2 C 8.6 8.2 9 8.4 9.4 8.8 L 9.8 9.2 L 10.2 8.8 C 11 8 11.5 7 11.5 5.8 C 11.5 3.5 9.5 1.5 6.5 1.5 Z" 
        fill="url(#maskGradient13)" stroke="#1B5E20" stroke-width="0.4"/>
  
  <!-- 左眼 -->
  <path d="M 4 5 Q 4.4 5.8 4.8 5" fill="none" stroke="#1B5E20" stroke-width="0.8" stroke-linecap="round"/>
  
  <!-- 右眼 -->
  <path d="M 8.2 5 Q 8.6 5.8 9 5" fill="none" stroke="#1B5E20" stroke-width="0.8" stroke-linecap="round"/>
  
  <!-- 微笑的嘴巴 -->
  <path d="M 4.5 6.5 Q 6.5 7.8 8.5 6.5" fill="none" stroke="#1B5E20" stroke-width="0.8" stroke-linecap="round"/>
  
  <!-- 装饰性的闪光点 -->
  <circle cx="2.8" cy="3" r="0.6" fill="#81C784" opacity="0.8"/>
  <circle cx="10.2" cy="3" r="0.5" fill="#81C784" opacity="0.6"/>
</svg>
